# xmcd
#
# Track frame offsets:
#	150
#	15085
#	36540
#	55512
#	74210
#	92732
#	109935
#	128405
#	148612
#	169732
#	187200
#	207660
#	224712
#
# Disc length: 3270 seconds
#
# Revision: 1
# Processed by: cddbd v1.4PL0 Copyright (c) Steve Scherf et al.
# Submitted via: CDmax 1.8
#
DISCID=ca0cc40d
DTITLE=Xeronimo - Amor Anonimo
DYEAR=2000
DGENRE=Pop
TTITLE0=Tras de Tus Pasos
TTITLE1=Amor Anonimo
TTITLE2=Despostillando Estrellas
TTITLE3=Faltas
TTITLE4=Niña Vanidosa
TTITLE5=Rolas Calmadas
TTITLE6=Realidad Virtual
TTITLE7=Nada Vuelve A Su Lugar
TTITLE8=Si Dices Que Si
TTITLE9=Flechazo
TTITLE10=No Me Preguntes
TTITLE11=Ebullición
TTITLE12=Palabras Para Mama
EXTD=
EXTT0=
EXTT1=
EXTT2=
EXTT3=
EXTT4=
EXTT5=
EXTT6=
EXTT7=
EXTT8=
EXTT9=
EXTT10=
EXTT11=
EXTT12=
PLAYORDER=
